<mxfile host="app.diagrams.net" modified="2022-07-14T09:15:50.756Z" agent="5.0 (Windows NT 10.0; Win64; x64) AppleWebKit/537.36 (KHTML, like Gecko) Chrome/102.0.0.0 Safari/537.36" etag="RNeNfLtmOZf7W9SLrIVv" version="20.0.4" type="github">
  <diagram id="6I0OCvxSQrVGMHxT2VVA" name="Page-1">
    <mxGraphModel dx="2512" dy="740" grid="1" gridSize="10" guides="1" tooltips="1" connect="1" arrows="1" fold="1" page="1" pageScale="1" pageWidth="850" pageHeight="1100" math="0" shadow="0">
      <root>
        <mxCell id="0" />
        <mxCell id="1" parent="0" />
        <mxCell id="dKdSaXE48SgPbhcamS2K-30" value="" style="whiteSpace=wrap;html=1;strokeColor=none;strokeWidth=1;fillColor=#f5f5f5;fontSize=14;" parent="1" vertex="1">
          <mxGeometry x="160" y="760" width="880" height="170" as="geometry" />
        </mxCell>
        <mxCell id="dKdSaXE48SgPbhcamS2K-31" value="" style="whiteSpace=wrap;html=1;strokeColor=none;strokeWidth=1;fillColor=#f5f5f5;fontSize=14;" parent="1" vertex="1">
          <mxGeometry x="160" y="530" width="880" height="210" as="geometry" />
        </mxCell>
        <mxCell id="dKdSaXE48SgPbhcamS2K-32" value="" style="whiteSpace=wrap;html=1;strokeColor=none;strokeWidth=1;fillColor=#f5f5f5;fontSize=14;" parent="1" vertex="1">
          <mxGeometry x="160" y="340" width="880" height="170" as="geometry" />
        </mxCell>
        <mxCell id="dKdSaXE48SgPbhcamS2K-33" value="&lt;h3&gt;系统及外部服务&lt;/h3&gt;" style="html=1;whiteSpace=wrap;fillColor=#AFFFAF;shape=mxgraph.archimate3.application;appType=node;archiType=square;fontSize=14;verticalAlign=top;" parent="1" vertex="1">
          <mxGeometry x="-50" y="340" width="160" height="600" as="geometry" />
        </mxCell>
        <mxCell id="_d-f--QHOUvqnbfLAZcR-27" value="" style="edgeStyle=orthogonalEdgeStyle;rounded=0;orthogonalLoop=1;jettySize=auto;html=1;" edge="1" parent="1" source="dKdSaXE48SgPbhcamS2K-40" target="_d-f--QHOUvqnbfLAZcR-9">
          <mxGeometry relative="1" as="geometry">
            <Array as="points">
              <mxPoint x="585" y="620" />
              <mxPoint x="475" y="620" />
            </Array>
          </mxGeometry>
        </mxCell>
        <mxCell id="dKdSaXE48SgPbhcamS2K-40" value="&lt;h3&gt;Flutter&lt;/h3&gt;" style="html=1;whiteSpace=wrap;fillColor=#AFFFAF;shape=mxgraph.archimate3.service;fontSize=14;" parent="1" vertex="1">
          <mxGeometry x="510" y="550" width="150" height="50" as="geometry" />
        </mxCell>
        <mxCell id="dKdSaXE48SgPbhcamS2K-54" value="&lt;h3&gt;&lt;pre style=&quot;font-size: 14px; font-weight: 400;&quot;&gt;&lt;pre&gt;常规业务UI部分&lt;/pre&gt;&lt;/pre&gt;&lt;/h3&gt;" style="html=1;whiteSpace=wrap;fillColor=#ffff99;shape=mxgraph.archimate3.application;appType=func;archiType=rounded;fontSize=14;" parent="1" vertex="1">
          <mxGeometry x="191" y="630" width="150" height="75" as="geometry" />
        </mxCell>
        <mxCell id="dKdSaXE48SgPbhcamS2K-55" value="&lt;h3&gt;&lt;span style=&quot;font-weight: normal;&quot;&gt;&lt;font style=&quot;font-size: 14px;&quot;&gt;Flutter无法实现的部分：如地图&lt;/font&gt;&lt;/span&gt;&lt;/h3&gt;" style="html=1;whiteSpace=wrap;fillColor=#ffff99;shape=mxgraph.archimate3.application;appType=collab;archiType=square;fontSize=14;" parent="1" vertex="1">
          <mxGeometry x="190" y="426" width="150" height="75" as="geometry" />
        </mxCell>
        <mxCell id="dKdSaXE48SgPbhcamS2K-57" value="&lt;h3&gt;&lt;span style=&quot;font-weight: normal;&quot;&gt;&lt;font style=&quot;font-size: 14px;&quot;&gt;DsBridge实现&lt;/font&gt;&lt;/span&gt;&lt;/h3&gt;" style="html=1;whiteSpace=wrap;fillColor=#ffff99;shape=mxgraph.archimate3.application;appType=proc;archiType=rounded;fontSize=14;" parent="1" vertex="1">
          <mxGeometry x="189" y="840" width="150" height="75" as="geometry" />
        </mxCell>
        <mxCell id="dKdSaXE48SgPbhcamS2K-63" value="Title" style="text;strokeColor=none;fillColor=none;html=1;fontSize=24;fontStyle=1;verticalAlign=middle;align=center;" parent="1" vertex="1">
          <mxGeometry x="50" y="70" width="1590" height="40" as="geometry" />
        </mxCell>
        <mxCell id="Wbachy3ewqk0nwV3Rkdx-1" value="&lt;h3&gt;业务工程&lt;/h3&gt;" style="text;html=1;resizable=0;autosize=1;align=center;verticalAlign=middle;points=[];fillColor=#dae8fc;strokeColor=#6c8ebf;rounded=0;" parent="1" vertex="1">
          <mxGeometry x="160" y="340" width="80" height="60" as="geometry" />
        </mxCell>
        <mxCell id="Wbachy3ewqk0nwV3Rkdx-7" value="sdk（如IM）" style="html=1;whiteSpace=wrap;fillColor=#AFFFAF;shape=mxgraph.archimate3.tech;techType=sysSw;fontSize=14;" parent="1" vertex="1">
          <mxGeometry x="-30" y="600" width="120" height="70" as="geometry" />
        </mxCell>
        <mxCell id="Wbachy3ewqk0nwV3Rkdx-8" value="so&lt;br&gt;（如：音视频）" style="html=1;whiteSpace=wrap;fillColor=#AFFFAF;shape=mxgraph.archimate3.tech;techType=sysSw;fontSize=14;" parent="1" vertex="1">
          <mxGeometry x="-30" y="770" width="120" height="72" as="geometry" />
        </mxCell>
        <mxCell id="Wbachy3ewqk0nwV3Rkdx-9" value="系统服务" style="html=1;whiteSpace=wrap;fillColor=#AFFFAF;shape=mxgraph.archimate3.tech;techType=sysSw;fontSize=14;" parent="1" vertex="1">
          <mxGeometry x="-30" y="445.25" width="120" height="68.75" as="geometry" />
        </mxCell>
        <mxCell id="_d-f--QHOUvqnbfLAZcR-3" value="&lt;h3 style=&quot;&quot;&gt;基础工程&amp;amp;组件库&lt;/h3&gt;" style="html=1;whiteSpace=wrap;fillColor=#AFFFAF;shape=mxgraph.archimate3.application;appType=node;archiType=square;fontSize=14;verticalAlign=top;" vertex="1" parent="1">
          <mxGeometry x="1110" y="340" width="170" height="590" as="geometry" />
        </mxCell>
        <mxCell id="dKdSaXE48SgPbhcamS2K-47" value="   通信：&#xa;    httpLib、&#xa;   netengine&#xa;" style="shape=component;align=center;fillColor=#99ffff;gradientColor=none;fontSize=14;" parent="1" vertex="1">
          <mxGeometry x="1127" y="420" width="125" height="70" as="geometry" />
        </mxCell>
        <mxCell id="dKdSaXE48SgPbhcamS2K-49" value="    数据：&#xa;     FjLogLib、&#xa;    databaselib&#xa;     architecture" style="shape=component;align=center;fillColor=#99ffff;gradientColor=none;fontSize=14;" parent="1" vertex="1">
          <mxGeometry x="1126.13" y="521" width="128.75" height="79" as="geometry" />
        </mxCell>
        <mxCell id="dKdSaXE48SgPbhcamS2K-51" value="    UI：&#xa;     robot-map、&#xa;     FjWidgetLib" style="shape=component;align=center;fillColor=#99ffff;gradientColor=none;fontSize=14;" parent="1" vertex="1">
          <mxGeometry x="1125" y="665" width="132.5" height="80" as="geometry" />
        </mxCell>
        <mxCell id="dKdSaXE48SgPbhcamS2K-53" value="     其他：&#xa;    FjAppUpdateLib&#xa;     FjPermissionLib&#xa;    fjcommonutillib" style="shape=component;align=center;fillColor=#99ffff;gradientColor=none;fontSize=14;" parent="1" vertex="1">
          <mxGeometry x="1122.5" y="806" width="147.5" height="77" as="geometry" />
        </mxCell>
        <mxCell id="_d-f--QHOUvqnbfLAZcR-4" value="&lt;h4&gt;H5&lt;/h4&gt;" style="html=1;whiteSpace=wrap;fillColor=#AFFFAF;shape=mxgraph.archimate3.service;fontSize=14;" vertex="1" parent="1">
          <mxGeometry x="510" y="770" width="150" height="50" as="geometry" />
        </mxCell>
        <mxCell id="_d-f--QHOUvqnbfLAZcR-5" value="&lt;h3&gt;原生&lt;/h3&gt;" style="html=1;whiteSpace=wrap;fillColor=#AFFFAF;shape=mxgraph.archimate3.service;fontSize=14;" vertex="1" parent="1">
          <mxGeometry x="510" y="349" width="150" height="50" as="geometry" />
        </mxCell>
        <mxCell id="_d-f--QHOUvqnbfLAZcR-6" value="&lt;h3&gt;业务工程&lt;/h3&gt;" style="text;html=1;resizable=0;autosize=1;align=center;verticalAlign=middle;points=[];fillColor=#dae8fc;strokeColor=#6c8ebf;rounded=0;" vertex="1" parent="1">
          <mxGeometry x="160" y="530" width="80" height="60" as="geometry" />
        </mxCell>
        <mxCell id="_d-f--QHOUvqnbfLAZcR-7" value="&lt;h3&gt;业务工程&lt;/h3&gt;" style="text;html=1;resizable=0;autosize=1;align=center;verticalAlign=middle;points=[];fillColor=#dae8fc;strokeColor=#6c8ebf;rounded=0;" vertex="1" parent="1">
          <mxGeometry x="160" y="760" width="80" height="60" as="geometry" />
        </mxCell>
        <mxCell id="_d-f--QHOUvqnbfLAZcR-8" value="&lt;h3&gt;&lt;pre style=&quot;font-size: 14px; font-weight: 400;&quot;&gt;&lt;pre&gt;富图文内容&lt;/pre&gt;&lt;/pre&gt;&lt;/h3&gt;" style="html=1;whiteSpace=wrap;fillColor=#ffff99;shape=mxgraph.archimate3.application;appType=func;archiType=rounded;fontSize=14;" vertex="1" parent="1">
          <mxGeometry x="610" y="630" width="150" height="75" as="geometry" />
        </mxCell>
        <mxCell id="_d-f--QHOUvqnbfLAZcR-9" value="&lt;h3&gt;&lt;pre style=&quot;font-size: 14px; font-weight: 400;&quot;&gt;组件&lt;/pre&gt;&lt;/h3&gt;" style="html=1;whiteSpace=wrap;fillColor=#ffff99;shape=mxgraph.archimate3.application;appType=func;archiType=rounded;fontSize=14;" vertex="1" parent="1">
          <mxGeometry x="400" y="630" width="150" height="75" as="geometry" />
        </mxCell>
        <mxCell id="_d-f--QHOUvqnbfLAZcR-10" value="&lt;h3&gt;&lt;pre style=&quot;font-size: 14px; font-weight: 400;&quot;&gt;Native扩展&lt;/pre&gt;&lt;/h3&gt;" style="html=1;whiteSpace=wrap;fillColor=#ffff99;shape=mxgraph.archimate3.application;appType=func;archiType=rounded;fontSize=14;" vertex="1" parent="1">
          <mxGeometry x="834" y="630" width="150" height="75" as="geometry" />
        </mxCell>
        <mxCell id="_d-f--QHOUvqnbfLAZcR-11" value="&lt;h3&gt;&lt;pre style=&quot;font-size: 14px; font-weight: 400;&quot;&gt;功能说明等&lt;/pre&gt;&lt;/h3&gt;" style="html=1;whiteSpace=wrap;fillColor=#ffff99;shape=mxgraph.archimate3.application;appType=proc;archiType=rounded;fontSize=14;" vertex="1" parent="1">
          <mxGeometry x="834" y="840" width="150" height="75" as="geometry" />
        </mxCell>
        <mxCell id="_d-f--QHOUvqnbfLAZcR-12" value="&lt;h3&gt;&lt;pre style=&quot;font-size: 14px; font-weight: 400;&quot;&gt;用户协议、隐私政策&lt;/pre&gt;&lt;/h3&gt;" style="html=1;whiteSpace=wrap;fillColor=#ffff99;shape=mxgraph.archimate3.application;appType=proc;archiType=rounded;fontSize=14;" vertex="1" parent="1">
          <mxGeometry x="620" y="840" width="150" height="75" as="geometry" />
        </mxCell>
        <mxCell id="_d-f--QHOUvqnbfLAZcR-13" value="&lt;h3&gt;&lt;span style=&quot;font-weight: normal;&quot;&gt;&lt;font style=&quot;font-size: 14px;&quot;&gt;商城&lt;/font&gt;&lt;/span&gt;&lt;/h3&gt;" style="html=1;whiteSpace=wrap;fillColor=#ffff99;shape=mxgraph.archimate3.application;appType=proc;archiType=rounded;fontSize=14;" vertex="1" parent="1">
          <mxGeometry x="410" y="840" width="150" height="75" as="geometry" />
        </mxCell>
        <mxCell id="_d-f--QHOUvqnbfLAZcR-16" value="&lt;h3&gt;&lt;pre style=&quot;font-size: 14px; font-weight: 400;&quot;&gt;后台服务&lt;/pre&gt;&lt;/h3&gt;" style="html=1;whiteSpace=wrap;fillColor=#ffff99;shape=mxgraph.archimate3.application;appType=collab;archiType=square;fontSize=14;" vertex="1" parent="1">
          <mxGeometry x="830" y="425" width="150" height="75" as="geometry" />
        </mxCell>
        <mxCell id="_d-f--QHOUvqnbfLAZcR-17" value="&lt;h3&gt;&lt;pre style=&quot;font-size: 14px; font-weight: 400;&quot;&gt;&lt;/pre&gt;&lt;/h3&gt;&lt;h3&gt;&lt;span style=&quot;font-size: 14px; font-weight: 400;&quot;&gt;系统服务相关&lt;/span&gt;&lt;/h3&gt;" style="html=1;whiteSpace=wrap;fillColor=#ffff99;shape=mxgraph.archimate3.application;appType=collab;archiType=square;fontSize=14;" vertex="1" parent="1">
          <mxGeometry x="600" y="426" width="150" height="75" as="geometry" />
        </mxCell>
        <mxCell id="_d-f--QHOUvqnbfLAZcR-20" value="" style="endArrow=classic;html=1;rounded=0;" edge="1" parent="1">
          <mxGeometry width="50" height="50" relative="1" as="geometry">
            <mxPoint x="110" y="460" as="sourcePoint" />
            <mxPoint x="160" y="460" as="targetPoint" />
          </mxGeometry>
        </mxCell>
        <mxCell id="_d-f--QHOUvqnbfLAZcR-21" value="" style="endArrow=classic;html=1;rounded=0;" edge="1" parent="1">
          <mxGeometry width="50" height="50" relative="1" as="geometry">
            <mxPoint x="110" y="807" as="sourcePoint" />
            <mxPoint x="160" y="807" as="targetPoint" />
          </mxGeometry>
        </mxCell>
        <mxCell id="_d-f--QHOUvqnbfLAZcR-22" value="" style="endArrow=classic;html=1;rounded=0;" edge="1" parent="1">
          <mxGeometry width="50" height="50" relative="1" as="geometry">
            <mxPoint x="110" y="630" as="sourcePoint" />
            <mxPoint x="160" y="630" as="targetPoint" />
          </mxGeometry>
        </mxCell>
        <mxCell id="_d-f--QHOUvqnbfLAZcR-23" value="" style="endArrow=classic;html=1;rounded=0;exitX=-0.024;exitY=0.192;exitDx=0;exitDy=0;exitPerimeter=0;entryX=1.002;entryY=0.671;entryDx=0;entryDy=0;entryPerimeter=0;" edge="1" parent="1" source="_d-f--QHOUvqnbfLAZcR-3" target="dKdSaXE48SgPbhcamS2K-32">
          <mxGeometry width="50" height="50" relative="1" as="geometry">
            <mxPoint x="590" y="590" as="sourcePoint" />
            <mxPoint x="640" y="540" as="targetPoint" />
          </mxGeometry>
        </mxCell>
        <mxCell id="_d-f--QHOUvqnbfLAZcR-24" value="" style="endArrow=classic;html=1;rounded=0;exitX=-0.024;exitY=0.192;exitDx=0;exitDy=0;exitPerimeter=0;entryX=1.002;entryY=0.671;entryDx=0;entryDy=0;entryPerimeter=0;" edge="1" parent="1">
          <mxGeometry width="50" height="50" relative="1" as="geometry">
            <mxPoint x="1105.16" y="850" as="sourcePoint" />
            <mxPoint x="1041.0000000000002" y="850.79" as="targetPoint" />
          </mxGeometry>
        </mxCell>
        <mxCell id="_d-f--QHOUvqnbfLAZcR-25" value="" style="endArrow=classic;html=1;rounded=0;exitX=-0.024;exitY=0.192;exitDx=0;exitDy=0;exitPerimeter=0;entryX=1.002;entryY=0.671;entryDx=0;entryDy=0;entryPerimeter=0;" edge="1" parent="1">
          <mxGeometry width="50" height="50" relative="1" as="geometry">
            <mxPoint x="1108" y="640.25" as="sourcePoint" />
            <mxPoint x="1043.8400000000001" y="641.04" as="targetPoint" />
          </mxGeometry>
        </mxCell>
        <mxCell id="_d-f--QHOUvqnbfLAZcR-28" value="" style="edgeStyle=orthogonalEdgeStyle;rounded=0;orthogonalLoop=1;jettySize=auto;html=1;entryX=0.5;entryY=0;entryDx=0;entryDy=0;entryPerimeter=0;" edge="1" parent="1" target="dKdSaXE48SgPbhcamS2K-54">
          <mxGeometry relative="1" as="geometry">
            <mxPoint x="580" y="620" as="sourcePoint" />
            <mxPoint x="485" y="640" as="targetPoint" />
            <Array as="points">
              <mxPoint x="595" y="620" />
              <mxPoint x="266" y="620" />
            </Array>
          </mxGeometry>
        </mxCell>
        <mxCell id="_d-f--QHOUvqnbfLAZcR-29" value="" style="edgeStyle=orthogonalEdgeStyle;rounded=0;orthogonalLoop=1;jettySize=auto;html=1;entryX=0.5;entryY=0;entryDx=0;entryDy=0;entryPerimeter=0;" edge="1" parent="1" target="_d-f--QHOUvqnbfLAZcR-8">
          <mxGeometry relative="1" as="geometry">
            <mxPoint x="590" y="620" as="sourcePoint" />
            <mxPoint x="276" y="640" as="targetPoint" />
            <Array as="points">
              <mxPoint x="685" y="620" />
            </Array>
          </mxGeometry>
        </mxCell>
        <mxCell id="_d-f--QHOUvqnbfLAZcR-30" value="" style="edgeStyle=orthogonalEdgeStyle;rounded=0;orthogonalLoop=1;jettySize=auto;html=1;entryX=0.5;entryY=0;entryDx=0;entryDy=0;entryPerimeter=0;" edge="1" parent="1" target="_d-f--QHOUvqnbfLAZcR-10">
          <mxGeometry relative="1" as="geometry">
            <mxPoint x="590" y="620" as="sourcePoint" />
            <mxPoint x="695" y="640" as="targetPoint" />
            <Array as="points">
              <mxPoint x="909" y="620" />
            </Array>
          </mxGeometry>
        </mxCell>
        <mxCell id="_d-f--QHOUvqnbfLAZcR-31" value="" style="edgeStyle=orthogonalEdgeStyle;rounded=0;orthogonalLoop=1;jettySize=auto;html=1;entryX=0.597;entryY=0;entryDx=0;entryDy=0;entryPerimeter=0;" edge="1" parent="1" target="dKdSaXE48SgPbhcamS2K-55">
          <mxGeometry relative="1" as="geometry">
            <mxPoint x="592.5" y="410" as="sourcePoint" />
            <mxPoint x="280" y="420" as="targetPoint" />
            <Array as="points">
              <mxPoint x="280" y="410" />
            </Array>
          </mxGeometry>
        </mxCell>
        <mxCell id="_d-f--QHOUvqnbfLAZcR-32" value="" style="edgeStyle=orthogonalEdgeStyle;rounded=0;orthogonalLoop=1;jettySize=auto;html=1;entryX=0.613;entryY=0.007;entryDx=0;entryDy=0;entryPerimeter=0;" edge="1" parent="1" target="_d-f--QHOUvqnbfLAZcR-16">
          <mxGeometry relative="1" as="geometry">
            <mxPoint x="602.5" y="410" as="sourcePoint" />
            <mxPoint x="922" y="420" as="targetPoint" />
            <Array as="points">
              <mxPoint x="922" y="410" />
            </Array>
          </mxGeometry>
        </mxCell>
        <mxCell id="_d-f--QHOUvqnbfLAZcR-33" value="" style="edgeStyle=orthogonalEdgeStyle;rounded=0;orthogonalLoop=1;jettySize=auto;html=1;" edge="1" parent="1">
          <mxGeometry relative="1" as="geometry">
            <mxPoint x="590" y="400" as="sourcePoint" />
            <mxPoint x="480" y="425" as="targetPoint" />
            <Array as="points">
              <mxPoint x="590" y="410" />
              <mxPoint x="480" y="410" />
            </Array>
          </mxGeometry>
        </mxCell>
        <mxCell id="_d-f--QHOUvqnbfLAZcR-35" value="" style="edgeStyle=orthogonalEdgeStyle;rounded=0;orthogonalLoop=1;jettySize=auto;html=1;entryX=0.58;entryY=0;entryDx=0;entryDy=0;entryPerimeter=0;" edge="1" parent="1" target="_d-f--QHOUvqnbfLAZcR-17">
          <mxGeometry relative="1" as="geometry">
            <mxPoint x="590" y="410" as="sourcePoint" />
            <mxPoint x="490" y="435" as="targetPoint" />
            <Array as="points">
              <mxPoint x="687" y="410" />
            </Array>
          </mxGeometry>
        </mxCell>
        <mxCell id="_d-f--QHOUvqnbfLAZcR-36" value="" style="edgeStyle=orthogonalEdgeStyle;rounded=0;orthogonalLoop=1;jettySize=auto;html=1;" edge="1" parent="1">
          <mxGeometry relative="1" as="geometry">
            <mxPoint x="580" y="820" as="sourcePoint" />
            <mxPoint x="470" y="840" as="targetPoint" />
            <Array as="points">
              <mxPoint x="580" y="830" />
              <mxPoint x="470" y="830" />
            </Array>
          </mxGeometry>
        </mxCell>
        <mxCell id="_d-f--QHOUvqnbfLAZcR-37" value="" style="edgeStyle=orthogonalEdgeStyle;rounded=0;orthogonalLoop=1;jettySize=auto;html=1;entryX=0.5;entryY=0;entryDx=0;entryDy=0;entryPerimeter=0;" edge="1" parent="1" target="_d-f--QHOUvqnbfLAZcR-12">
          <mxGeometry relative="1" as="geometry">
            <mxPoint x="580" y="820" as="sourcePoint" />
            <mxPoint x="480" y="850" as="targetPoint" />
            <Array as="points">
              <mxPoint x="580" y="830" />
              <mxPoint x="695" y="830" />
            </Array>
          </mxGeometry>
        </mxCell>
        <mxCell id="_d-f--QHOUvqnbfLAZcR-40" value="" style="edgeStyle=orthogonalEdgeStyle;rounded=0;orthogonalLoop=1;jettySize=auto;html=1;" edge="1" parent="1">
          <mxGeometry relative="1" as="geometry">
            <mxPoint x="580" y="830" as="sourcePoint" />
            <mxPoint x="260" y="840" as="targetPoint" />
            <Array as="points">
              <mxPoint x="260" y="830" />
            </Array>
          </mxGeometry>
        </mxCell>
        <mxCell id="_d-f--QHOUvqnbfLAZcR-44" value="" style="edgeStyle=orthogonalEdgeStyle;rounded=0;orthogonalLoop=1;jettySize=auto;html=1;entryX=0.5;entryY=0;entryDx=0;entryDy=0;entryPerimeter=0;" edge="1" parent="1">
          <mxGeometry relative="1" as="geometry">
            <mxPoint x="690" y="830" as="sourcePoint" />
            <mxPoint x="905" y="840" as="targetPoint" />
            <Array as="points">
              <mxPoint x="790" y="830" />
              <mxPoint x="905" y="830" />
            </Array>
          </mxGeometry>
        </mxCell>
        <mxCell id="_d-f--QHOUvqnbfLAZcR-45" value="&lt;h3&gt;&lt;pre style=&quot;font-size: 14px; font-weight: 400;&quot;&gt;&lt;/pre&gt;&lt;/h3&gt;&lt;h3&gt;&lt;span style=&quot;font-weight: normal;&quot;&gt;&lt;font style=&quot;font-size: 14px;&quot;&gt;Flutter实现成本高的部分：如视频、协议&lt;/font&gt;&lt;/span&gt;&lt;/h3&gt;" style="html=1;whiteSpace=wrap;fillColor=#ffff99;shape=mxgraph.archimate3.application;appType=collab;archiType=square;fontSize=14;" vertex="1" parent="1">
          <mxGeometry x="409" y="427" width="150" height="75" as="geometry" />
        </mxCell>
      </root>
    </mxGraphModel>
  </diagram>
</mxfile>
